<svg width="24" height="24" viewBox="0 0 24 24" fill="none" xmlns="http://www.w3.org/2000/svg">
<path d="M11.222 8.18591C11.5595 9.19819 11.215 10.2199 10.4528 10.47C9.69065 10.7201 8.79871 10.1019 8.46129 9.08965C8.12386 8.07737 8.46837 7.05566 9.23052 6.80554C9.99268 6.55542 10.8846 7.17364 11.222 8.18591ZM8.24656 10.68C8.69253 11.4445 8.58399 12.3341 8.00588 12.6645C7.42778 12.9948 6.59719 12.6432 6.15359 11.8787C5.70998 11.1142 5.8138 10.2246 6.39191 9.89427C6.97001 9.56393 7.8006 9.91551 8.2442 10.68H8.24656ZM7.51036 15.4606C8.7468 12.1265 10.9436 11.2794 11.9181 11.2794C12.8926 11.2794 15.0894 12.1265 16.3259 15.4606C16.4108 15.6895 16.4486 15.9349 16.4486 16.1803V16.218C16.4486 16.8268 15.9554 17.32 15.3466 17.32C15.0753 17.32 14.8063 17.2869 14.5444 17.2209L12.4679 16.7018C12.1069 16.6121 11.7294 16.6121 11.3683 16.7018L9.29187 17.2209C9.02995 17.2869 8.76096 17.32 8.4896 17.32C7.88082 17.32 7.38766 16.8268 7.38766 16.218V16.1803C7.38766 15.9349 7.42542 15.6895 7.51036 15.4606ZM15.8304 12.6645C15.2523 12.3341 15.1437 11.4445 15.5897 10.68C16.0356 9.91551 16.8639 9.56393 17.442 9.89427C18.0201 10.2246 18.1286 11.1142 17.6827 11.8787C17.2367 12.6432 16.4085 12.9948 15.8304 12.6645ZM13.1947 10.47C12.4325 10.2199 12.088 9.19819 12.4254 8.18591C12.7629 7.17364 13.6548 6.55542 14.417 6.80554C15.1791 7.05566 15.5236 8.07737 15.1862 9.08965C14.8488 10.1019 13.9568 10.7201 13.1947 10.47Z" fill="white"/>
<g clip-path="url(#clip0_1674_4841)">
<path d="M24 12C24 18.6274 18.6274 24 12 24C5.37258 24 0 18.6274 0 12C0 5.37258 5.37258 0 12 0C18.6274 0 24 5.37258 24 12ZM1.93783 12C1.93783 17.5572 6.44282 22.0622 12 22.0622C17.5572 22.0622 22.0622 17.5572 22.0622 12C22.0622 6.44282 17.5572 1.93783 12 1.93783C6.44282 1.93783 1.93783 6.44282 1.93783 12Z" fill="white"/>
</g>
<defs>
<clipPath id="clip0_1674_4841">
<rect width="24" height="24" fill="white"/>
</clipPath>
</defs>
</svg>
