<svg width="32" height="32" viewBox="0 0 32 32" fill="none" xmlns="http://www.w3.org/2000/svg">
<path d="M14.2129 7.28209C14.9841 9.59586 14.1967 11.9312 12.4546 12.5029C10.7125 13.0746 8.67384 11.6615 7.90259 9.34776C7.13133 7.03399 7.91877 4.69865 9.66084 4.12695C11.4029 3.55525 13.4416 4.96832 14.2129 7.28209ZM7.41179 12.9829C8.43114 14.7304 8.18304 16.7637 6.86166 17.5188C5.54028 18.2738 3.6418 17.4702 2.62784 15.7228C1.61388 13.9753 1.85119 11.942 3.17257 11.1869C4.49396 10.4318 6.39244 11.2355 7.40639 12.9829H7.41179ZM5.72905 23.9099C8.55519 16.2891 13.5764 14.3528 15.8039 14.3528C18.0314 14.3528 23.0526 16.2891 25.8788 23.9099C26.073 24.4331 26.1592 24.994 26.1592 25.5549V25.6412C26.1592 27.0327 25.032 28.1599 23.6405 28.1599C23.0203 28.1599 22.4054 28.0844 21.8068 27.9334L17.0606 26.7469C16.2354 26.5419 15.3724 26.5419 14.5473 26.7469L9.80106 27.9334C9.2024 28.0844 8.58755 28.1599 7.96731 28.1599C6.57581 28.1599 5.44859 27.0327 5.44859 25.6412V25.5549C5.44859 24.994 5.53488 24.4331 5.72905 23.9099ZM24.7462 17.5188C23.4248 16.7637 23.1767 14.7304 24.196 12.9829C25.2154 11.2355 27.1085 10.4318 28.4299 11.1869C29.7513 11.942 29.9993 13.9753 28.98 15.7228C27.9606 17.4702 26.0676 18.2738 24.7462 17.5188ZM18.7217 12.5029C16.9797 11.9312 16.1922 9.59586 16.9635 7.28209C17.7348 4.96832 19.7735 3.55525 21.5155 4.12695C23.2576 4.69865 24.045 7.03399 23.2738 9.34776C22.5025 11.6615 20.4638 13.0746 18.7217 12.5029Z" fill="white"/>
</svg>
